<svg enable-background="new 0 0 140 140" height="512" viewBox="0 0 140 140" width="512" xmlns="http://www.w3.org/2000/svg"><circle cx="70" cy="70" fill="#dad7dc" r="64"/><path d="m133.8900146 66.3798828c.0699463 1.2001953.1099854 2.4101563.1099854 3.6201172 0 35.3500977-28.6500244 64-64 64-3.7399902 0-7.4000244-.3398438-10.9699707-.9599609l-25.2900391-25.2802734v-43.7299805l-3.7199707-3.7197266c-1.2700195-1.1000977-2.0800171-2.7299805-2.0800171-4.5400391v-1.3198242l5.7999878-6.5400391v-9.1601562h72.5200195z" opacity=".1"/><path d="m33.741509 47.678314h72.516945v60.086437h-72.516945z" fill="#d6b251"/><path d="m33.741516 38.750042h72.516968v10.430237h-72.516968z" fill="#ba9a43"/><path d="m75.1500244 47.6801758.8599854 6.7700195v1.3198242c0 3.3198242-2.6900024 6.0097656-6.0100098 6.0097656s-6.0100098-2.6899414-6.0100098-6.0097656v-1.3198242l.8599854-6.7700195z" fill="#ececec"/><path d="m100.0400391 54.4501953v1.3198242c0 1.6601562-.6700439 3.1601562-1.7600098 4.25-1.0900879 1.0898438-2.5900879 1.7597656-4.25 1.7597656-3.3100586 0-6-2.6899414-6-6.0097656v-1.3198242l-2.5800781-6.7700195h10.3000488z" fill="#ececec"/><path d="m44.25 47.6801758h10.2999878l-2.5800171 6.7700195v1.3198242c0 3.3198242-2.6899414 6.0097656-6 6.0097656-3.3199463 0-6.0099487-2.6899414-6.0099487-6.0097656v-1.3198242z" fill="#ececec"/><path d="m51.9740524 54.4529724h-12.0172844l4.2918892-6.7746582h10.3005295z" fill="#dad7dc"/><path d="m76.0086212 54.4529724h-12.0172844l.8583794-6.7746582h10.3005295z" fill="#dad7dc"/><path d="m100.04319 54.4529724h-12.0172806l-2.5751343-6.7746582h10.3005295z" fill="#dad7dc"/><g fill="#db584d"><path d="m33.9500122 47.6801758h10.2999878l-4.289978 6.7700195v1.3198242c0 1.6601562-.6700439 3.1601562-1.7600098 4.25-1.0900269 1.0898438-2.5900269 1.7597656-4.25 1.7597656-3.3200073 0-6.0100098-2.6899414-6.0100098-6.0097656v-1.3198242z"/><path d="m112.0600586 54.4501953v1.3198242c0 3.3198242-2.6900635 6.0097656-6.0100098 6.0097656-3.3200684 0-6.0100098-2.6899414-6.0100098-6.0097656v-1.3198242l-4.290039-6.7700195h10.3000488z"/><path d="m85.4499512 47.6801758 2.5800781 6.7700195v1.3198242c0 3.3198242-2.6899414 6.0097656-6.0100098 6.0097656-3.3200073 0-6.0100098-2.6899414-6.0100098-6.0097656v-1.3198242l-.8599854-6.7700195z"/><path d="m54.5499878 47.6801758h10.2999878l-.8599854 6.7700195v1.3198242c0 3.3198242-2.6900024 6.0097656-6.0100098 6.0097656s-6.0100098-2.6899414-6.0100098-6.0097656v-1.3198242z"/></g><g fill="#cd5148"><path d="m39.956768 54.4529724h-12.0172863l6.0086422-6.7746582h10.3005333z"/><path d="m63.9913368 54.4529724h-12.0172844l2.5751343-6.7746582h10.3005295z"/><path d="m88.0259094 54.4529724h-12.0172882l-.8583755-6.7746582h10.3005294z"/><path d="m112.0604782 54.4529724h-12.0172882l-4.2918854-6.7746582h10.3005371z"/></g><path d="m77.864746 71.281151h22.178457v36.483597h-22.178457z" fill="#293b44"/><path d="m45.189442 70.822731h21.22744v36.123535h-21.22744z" fill="#e6e7e8" transform="matrix(0 1 -1 0 144.688 33.081)"/><path d="m48.189392 73.822731h15.227539v30.123535h-15.227539z" fill="#509fd7" transform="matrix(0 1 -1 0 144.688 33.081)"/></svg>